<svg width="512" height="512" viewBox="0 0 512 512" fill="none" xmlns="http://www.w3.org/2000/svg">
<path d="M506.269 242.105L269.885 5.73095C262.244 -1.91032 249.749 -1.91032 242.115 5.73095L5.73103 242.105C-1.91034 249.746 -1.91034 262.24 5.73103 269.874L28.613 292.756C36.2544 300.397 48.7489 300.397 56.3832 292.756L256 93.149L455.617 292.763C463.258 300.404 475.753 300.404 483.387 292.763L506.269 269.881C513.91 262.24 513.91 249.746 506.269 242.112V242.105Z" fill="white"/>
<path d="M292.768 455.611L193.556 356.401L292.768 257.191C300.409 249.55 300.409 237.055 292.768 229.421L269.886 206.54C262.245 198.898 249.75 198.898 242.116 206.54L129.019 319.635L106.137 342.516C104.831 343.823 103.763 345.283 102.899 346.828C102.647 347.278 102.429 347.734 102.211 348.198C101.263 350.27 100.68 352.461 100.49 354.687C100.006 360.278 101.888 366.037 106.137 370.293L129.019 393.175L242.116 506.27C249.757 513.911 262.252 513.911 269.886 506.27L292.768 483.388C300.409 475.747 300.409 463.252 292.768 455.618V455.611Z" fill="white"/>
<path d="M379.904 321.247C378.149 322.662 363.771 333.913 346.908 335.379C346.194 335.314 345.464 335.278 344.735 335.278C331.945 335.278 321.575 345.647 321.575 358.436C321.575 363.346 323.099 367.895 325.706 371.636C317.82 374.697 308.843 379.283 301.549 385.919C296.479 377.983 293.555 368.545 293.555 358.428C293.555 330.158 316.469 307.238 344.742 307.238C358.362 307.238 370.74 312.56 379.912 321.233L379.904 321.247Z" fill="white"/>
<path d="M396.094 358.486C396.094 386.814 373.129 409.777 344.805 409.777C331.164 409.777 318.764 404.456 309.578 395.761C311.391 394.295 325.841 383.031 342.747 381.601C343.419 381.659 344.112 381.695 344.798 381.695C357.61 381.695 368.002 371.304 368.002 358.486C368.002 353.576 366.478 349.027 363.871 345.279C371.771 342.21 380.769 337.617 388.078 330.967C393.147 338.924 396.079 348.362 396.079 358.486H396.087H396.094Z" fill="white"/>
</svg>
